<svg xmlns="http://www.w3.org/2000/svg" width="224.88" viewBox="0 0 224.88 225" height="225" version="1.0"><defs><clipPath id="a"><path d="M 7 25.4375 L 218 25.4375 L 218 199.566406 L 7 199.566406 Z M 7 25.4375"/></clipPath><clipPath id="b"><path d="M 133 72 L 165.695312 72 L 165.695312 132 L 133 132 Z M 133 72"/></clipPath><clipPath id="c"><path d="M 59.191406 72 L 92 72 L 92 132 L 59.191406 132 Z M 59.191406 72"/></clipPath><clipPath id="d"><path d="M 95 61.539062 L 130 61.539062 L 130 141.296875 L 95 141.296875 Z M 95 61.539062"/></clipPath></defs><g clip-path="url(#a)"><path d="M 115.835938 177.800781 L 115.835938 192.3125 L 177.433594 192.3125 C 179.472656 192.3125 181.136719 194.011719 181.136719 195.9375 C 181.136719 197.941406 179.472656 199.566406 177.433594 199.566406 L 46.980469 199.566406 C 44.941406 199.566406 43.277344 197.867188 43.277344 195.9375 C 43.277344 193.9375 44.941406 192.3125 46.980469 192.3125 L 108.578125 192.3125 L 108.578125 177.800781 L 17.960938 177.800781 C 11.914062 177.800781 7 172.886719 7 166.957031 L 7 36.285156 C 7 30.277344 11.835938 25.4375 17.960938 25.4375 L 206.453125 25.4375 C 212.5 25.4375 217.414062 30.351562 217.414062 36.285156 L 217.414062 166.957031 C 217.414062 172.964844 212.578125 177.800781 206.453125 177.800781 Z M 25.101562 39.949219 C 23.136719 39.949219 21.511719 41.535156 21.511719 43.503906 L 21.511719 159.738281 C 21.511719 161.742188 23.136719 163.289062 25.101562 163.289062 L 199.3125 163.289062 C 201.277344 163.289062 202.902344 161.703125 202.902344 159.738281 L 202.902344 43.503906 C 202.902344 41.5 201.277344 39.949219 199.3125 39.949219 Z M 25.101562 39.949219" fill-rule="evenodd"/></g><g clip-path="url(#b)"><path d="M 136.15625 131.109375 C 135.523438 131.109375 134.890625 130.867188 134.410156 130.386719 C 133.445312 129.421875 133.445312 127.859375 134.410156 126.894531 L 159.710938 101.589844 L 134.410156 76.285156 C 133.445312 75.320312 133.445312 73.757812 134.410156 72.792969 C 135.375 71.828125 136.9375 71.828125 137.902344 72.792969 L 164.949219 99.84375 C 165.410156 100.304688 165.671875 100.933594 165.671875 101.589844 C 165.671875 102.242188 165.410156 102.871094 164.949219 103.335938 L 137.898438 130.386719 C 137.417969 130.867188 136.785156 131.109375 136.15625 131.109375 Z M 136.15625 131.109375"/></g><g clip-path="url(#c)"><path d="M 88.734375 131.109375 C 88.101562 131.109375 87.46875 130.867188 86.988281 130.386719 L 59.941406 103.335938 C 59.480469 102.871094 59.21875 102.246094 59.21875 101.589844 C 59.21875 100.933594 59.480469 100.304688 59.941406 99.84375 L 86.988281 72.792969 C 87.953125 71.828125 89.515625 71.828125 90.480469 72.792969 C 91.445312 73.757812 91.445312 75.320312 90.480469 76.285156 L 65.179688 101.589844 L 90.480469 126.894531 C 91.445312 127.859375 91.445312 129.421875 90.480469 130.386719 C 89.996094 130.867188 89.367188 131.109375 88.734375 131.109375 Z M 88.734375 131.109375"/></g><g clip-path="url(#d)"><path d="M 97.746094 141.308594 C 97.445312 141.308594 97.140625 141.253906 96.84375 141.136719 C 95.574219 140.632812 94.953125 139.199219 95.453125 137.933594 L 124.84375 63.433594 C 125.34375 62.164062 126.777344 61.542969 128.046875 62.042969 C 129.316406 62.542969 129.9375 63.976562 129.4375 65.246094 L 100.046875 139.746094 C 99.660156 140.714844 98.730469 141.308594 97.746094 141.308594 Z M 97.746094 141.308594"/></g></svg>