<?xml version="1.0" encoding="utf-8"?>
<!-- Generator: Adobe Illustrator 24.2.3, SVG Export Plug-In . SVG Version: 6.00 Build 0)  -->
<svg version="1.0" id="Layer_2" xmlns="http://www.w3.org/2000/svg" xmlns:xlink="http://www.w3.org/1999/xlink" x="0px" y="0px"
	 viewBox="0 0 100 100" style="enable-background:new 0 0 100 100;" xml:space="preserve">
<style type="text/css">
	.st0{fill:#FFFFFF;}
	.st1{fill:#F1BE42;}
	.st2{fill:#58A55C;}
	.st3{fill:#D95040;}
	.st4{fill:#B6342B;}
	.st5{fill:#5186EC;}
</style>
<path class="st0" d="M76.9,100H23.1C10.4,100,0,89.6,0,76.9V23.1C0,10.4,10.4,0,23.1,0h53.9C89.6,0,100,10.4,100,23.1v53.9
	C100,89.6,89.6,100,76.9,100z"/>
<g>
	<path class="st1" d="M91.5,26v7.4l-18.6,14V23.4l5.4-4.1c1.1-0.8,2.4-1.4,3.7-1.6h1.2C87.8,17.7,91.5,21.4,91.5,26z"/>
	<path class="st2" d="M91.5,33.4v39c0,4.1-3.3,7.3-7.3,7.3H72.9V47.4L91.5,33.4z"/>
	<polygon class="st3" points="72.9,23.4 72.9,47.4 50.2,64.6 27.4,47.5 27.4,23.3 50.3,40.4 	"/>
	<path class="st4" d="M27.4,23.3v24.3L8.6,33.4v-7c0-2.7,1.2-5.2,3-6.9l0,0c3.1-2.4,7.5-2.5,10.8,0L27.4,23.3z"/>
	<path class="st5" d="M27.4,47.5v32.3H16c-4.1,0-7.3-3.3-7.3-7.3V33.4L27.4,47.5z"/>
</g>
</svg>
